<svg xmlns="http://www.w3.org/2000/svg" xmlns:xlink="http://www.w3.org/1999/xlink"><defs><path id="a" d="M29.623 96.602C11.875 87.51 0 70.937 0 52 0 23.281 27.31 0 61 0s61 23.281 61 52-27.31 52-61 52a71.52 71.52 0 0 1-12.386-1.073l-18.427 9.796-.564-16.12z"></path><mask id="b" width="128" height="118.723" x="-3" y="-3"><path fill="#fff" d="M-3-3h128v118.723H-3z"></path><use xlink:href="#a"></use></mask></defs><g fill="none" fill-rule="evenodd" transform="translate(3.5 3)"><use xlink:href="#a" fill="#FEFEFE"></use><use xlink:href="#a" stroke="#E6E6E6" stroke-linecap="round" stroke-linejoin="round" stroke-width="6" mask="url(#b)"></use><path fill="#F1FBFD" stroke="#2DB3C9" stroke-linecap="round" stroke-linejoin="round" stroke-width="3" d="M113.244 108.211c-1.065.1-2.148.15-3.244.15-16.569 0-30-11.64-30-26 0-14.359 13.431-26 30-26 16.569 0 30 11.641 30 26 0 9.507-5.887 17.822-14.674 22.356l.717 11.945-12.799-8.45z"></path><circle cx="98" cy="84" r="4" fill="#2DB3C9"></circle><circle cx="111.25" cy="84" r="4" fill="#2DB3C9"></circle><circle cx="123.75" cy="84" r="4" fill="#2DB3C9"></circle></g></svg>